<svg xmlns="http://www.w3.org/2000/svg" viewBox="0 0 91.19 91.19">
  <defs>
    <style>
      .cls-1 {
        fill: #fff;
      }
    </style>
  </defs>
  <title>assembly</title>
  <g id="Layer_2" data-name="Layer 2">
    <g id="Layer_2-2" data-name="Layer 2">
      <g>
        <path class="cls-1" d="M11.77,7.35H2.94V1.47A1.47,1.47,0,0,0,1.47,0h0A1.47,1.47,0,0,0,0,1.47V89.72a1.47,1.47,0,0,0,1.47,1.47h0a1.47,1.47,0,0,0,1.47-1.47V10.3h8.83v1.47h2.94V5.88H11.77Z"/>
        <path class="cls-1" d="M66.19,76.48h0a4.42,4.42,0,0,1-4.42,4.42H51a5.06,5.06,0,0,0-1-5.89,5.11,5.11,0,0,0,0-7.35,5.12,5.12,0,0,0,0-7.36,5,5,0,0,0,1-5.88h0a1.68,1.68,0,0,0,1.19-2.88L50,49.4V38.93a3.64,3.64,0,0,1,.48.4L65,53.86a1.9,1.9,0,0,0,1.35.56H89.72A1.47,1.47,0,0,0,91.19,53h0a1.47,1.47,0,0,0-1.47-1.47H66.8L52.57,37.25A6.44,6.44,0,0,0,50,35.69V25h1.2l1.48-7.35H54.1a10.3,10.3,0,0,1,5.3,1.47l11.17,6.7a4.56,4.56,0,0,0,2.36.65H73a5.06,5.06,0,0,0,3.28-1.14,4.51,4.51,0,0,0,.29-6.69L67.38,9.4A22.1,22.1,0,0,0,51.77,2.94H34.69L33.22,4.41H31.5L30,2.94H19.12V17.65H30l1.47-1.47h1.72l1.47,1.47h.87L37,25h1.2V51.48H34.82a5.34,5.34,0,0,0-5.4,5.38A5.13,5.13,0,0,0,31,60.3a5.14,5.14,0,0,0,0,7.36A5.13,5.13,0,0,0,31,75a5.17,5.17,0,0,0-1.55,3.44,5.34,5.34,0,0,0,5.4,5.39h3.42v7.35H50V83.84H61.77A7.36,7.36,0,0,0,69,78H89.72a1.47,1.47,0,0,0,1.47-1.47h0A1.47,1.47,0,0,0,89.72,75H67.66A1.47,1.47,0,0,0,66.19,76.48ZM47.07,88.25H41.18V83.84h5.89Zm-.74-7.35H34.56a2.21,2.21,0,0,1,0-4.42H46.33a2.21,2.21,0,0,1,0,4.42Zm0-7.36H34.56a2.21,2.21,0,0,1,0-4.41H46.33a2.21,2.21,0,1,1,0,4.41Zm0-7.35H34.56a2.21,2.21,0,0,1,0-4.42H46.33a2.21,2.21,0,1,1,0,4.42Zm0-7.36H34.56a2.21,2.21,0,0,1,0-4.41H46.33a2.21,2.21,0,1,1,0,4.41Zm-5.15-7.35V25h5.89V51.48ZM39.45,22.06,38,14.71H35.91l-1.47-1.47H30.28l-1.47,1.47H22.06V5.88h6.75l1.47,1.47h4.16l1.47-1.47H51.78a19,19,0,0,1,13.51,5.6l9.24,9.24a1.65,1.65,0,0,1-1.17,2.81h-.43a1.66,1.66,0,0,1-.84-.23L60.91,16.59a13.28,13.28,0,0,0-6.81-1.88H50.27L48.8,22.06Z"/>
        <rect class="cls-1" x="36.77" y="8.82" width="10.3" height="2.94"/>
        <rect class="cls-1" x="50.01" y="8.82" width="2.94" height="2.94"/>
      </g>
    </g>
  </g>
</svg>
