<svg xmlns="http://www.w3.org/2000/svg" viewBox="0 0 88.89 85.4"><defs><style>.cls-1{fill:#fff;}</style></defs><title>comment</title><g id="Layer_2" data-name="Layer 2"><g id="Layer_2-2" data-name="Layer 2"><path class="cls-1" d="M86.9,0H2A2,2,0,0,0,0,2V63.06a2,2,0,0,0,2,2H18.68a2,2,0,0,1,2,1.95L21,83.45a2,2,0,0,0,3.49,1.26l16.36-19a2,2,0,0,1,1.5-.69H86.9a2,2,0,0,0,2-2V2A2,2,0,0,0,86.9,0ZM26.29,38.26A5.67,5.67,0,1,1,32,32.6,5.67,5.67,0,0,1,26.29,38.26Zm18.15,0a5.67,5.67,0,1,1,5.67-5.67A5.67,5.67,0,0,1,44.44,38.26Zm18.15,0a5.67,5.67,0,1,1,5.67-5.67A5.67,5.67,0,0,1,62.6,38.26Z"/></g></g></svg>