<?xml version="1.0" encoding="utf-8"?>
<!-- Generator: Adobe Illustrator 22.0.1, SVG Export Plug-In . SVG Version: 6.00 Build 0)  -->
<svg version="1.1" id="commentsicon" class="navicons" xmlns="http://www.w3.org/2000/svg" xmlns:xlink="http://www.w3.org/1999/xlink" x="0px" y="0px"
viewBox="0 0 500 500" style="enable-background:new 0 0 500 500;" xml:space="preserve">
<style type="text/css">
.st0{fill:#EA1C1C;}
</style>
<path class="st0" d="M448.7,43H52.4c-5.1,0-9.3,4.1-9.3,9.3v285.1c0,5.1,4.1,9.3,9.3,9.3h77.9c5,0,9.2,4,9.3,9.1l1.4,76.8
c0.2,8.5,10.7,12.3,16.3,5.9l76.4-88.6c1.8-2,4.3-3.2,7-3.2h208.1c5.1,0,9.3-4.1,9.3-9.3V52.2C458,47.1,453.9,43,448.7,43z
M165.8,221.5c-14.6,0-26.5-11.8-26.5-26.5c0-14.6,11.8-26.5,26.5-26.5c14.6,0,26.5,11.8,26.5,26.5
C192.3,209.7,180.5,221.5,165.8,221.5z M250.6,221.5c-14.6,0-26.5-11.8-26.5-26.5c0-14.6,11.8-26.5,26.5-26.5
c14.6,0,26.5,11.8,26.5,26.5C277,209.7,265.2,221.5,250.6,221.5z M335.3,221.5c-14.6,0-26.5-11.8-26.5-26.5
c0-14.6,11.8-26.5,26.5-26.5s26.5,11.8,26.5,26.5C361.7,209.7,349.9,221.5,335.3,221.5z"/>
</svg>
