<svg xmlns="http://www.w3.org/2000/svg" viewBox="0 0 81.02 93.85"><defs><style>.cls-1{fill:#fff;}</style></defs><title>Asset 3</title><g id="Layer_2" data-name="Layer 2"><g id="Layer_1-2" data-name="Layer 1"><path class="cls-1" d="M40.51,55.34A27.67,27.67,0,1,1,68.18,27.67,27.7,27.7,0,0,1,40.51,55.34ZM40.51,4A23.67,23.67,0,1,0,64.18,27.67,23.7,23.7,0,0,0,40.51,4Z"/><path class="cls-1" d="M79,93.85a2,2,0,0,1-2-2,36.51,36.51,0,0,0-73,0,2,2,0,0,1-4,0,40.51,40.51,0,0,1,81,0A2,2,0,0,1,79,93.85Z"/><path class="cls-1" d="M62.52,74.61H53.25a2,2,0,0,1,0-4h9.27a2,2,0,0,1,0,4Z"/><polygon class="cls-1" points="46.88 54.5 40.52 65.86 34.15 54.5 40.52 53.14 46.88 54.5"/><path class="cls-1" d="M45.84,77.65,41,89.31a.46.46,0,0,1-.89,0L35.19,77.65a.48.48,0,0,1,0-.29l4.88-18.29a.46.46,0,0,1,.85,0l4.89,18.29A.48.48,0,0,1,45.84,77.65Z"/></g></g></svg>