<?xml version="1.0" encoding="utf-8"?>
<!-- Generator: Adobe Illustrator 22.0.1, SVG Export Plug-In . SVG Version: 6.00 Build 0)  -->
<svg version="1.1" id="Layer_1" xmlns="http://www.w3.org/2000/svg" xmlns:xlink="http://www.w3.org/1999/xlink" x="0px" y="0px"
	 viewBox="0 0 500 500" style="enable-background:new 0 0 500 500;" xml:space="preserve">
<style type="text/css">
	.st0{fill:#EA1C1C;}
</style>
<g>
	<polygon class="st0" points="236.4,236.6 254.4,252.1 258.5,244 240.5,228.5 	"/>
	<path class="st0" d="M193.5,321.2l9.5,8.1c3,2.5,3.3,7,0.8,10c-1.4,1.6-3.4,2.5-5.4,2.5c-1.6,0-3.3-0.6-4.6-1.7l-6.9-5.9l-7.5,14.8
		l-6.4,38.2l27-27.7l15.8-31.1l-18-15.5L193.5,321.2z"/>
	<polygon class="st0" points="215,278.7 233.1,294.2 237.2,286.1 219.1,270.7 	"/>
	<polygon class="st0" points="204.3,299.8 222.4,315.3 226.5,307.2 208.4,291.7 	"/>
	<polygon class="st0" points="225.7,257.7 243.7,273.1 247.8,265.1 229.8,249.6 	"/>
	<polygon class="st0" points="247.1,215.5 265.1,231 269.2,222.9 251.2,207.4 	"/>
	<path class="st0" d="M250.1,43.1C135.5,43.1,42.6,136,42.6,250.5S135.5,458,250.1,458s207.5-92.9,207.5-207.5
		S364.7,43.1,250.1,43.1z M380.5,148.1c-0.6,4.8-4,8.6-8.8,9.7l-60.7,13.9l-24.2,47.7l2.2,1.9c3,2.5,3.3,7,0.8,10
		c-1.4,1.6-3.4,2.5-5.4,2.5c-1.4,0-2.9-0.5-4.1-1.4l-4.1,8.2l2.2,1.9c3,2.5,3.3,7,0.8,10c-1.4,1.6-3.4,2.5-5.4,2.5
		c-1.4,0-2.9-0.5-4.1-1.4l-4.1,8.2l2.2,1.9c3,2.5,3.3,7,0.8,10c-1.4,1.6-3.4,2.5-5.4,2.5c-1.4,0-2.9-0.5-4.1-1.4l-4.1,8.2l2.2,1.9
		c3,2.5,3.3,7,0.8,10c-1.4,1.6-3.4,2.5-5.4,2.5c-1.4,0-2.9-0.5-4.1-1.4l-4.1,8.2l2.2,1.9c3,2.5,3.3,7,0.8,10
		c-1.4,1.6-3.4,2.5-5.4,2.5c-1.4,0-2.9-0.5-4.1-1.4l-4.1,8.2l2.2,1.9c3,2.5,3.3,7,0.8,10c-1.4,1.6-3.4,2.5-5.4,2.5
		c-1.4,0-2.9-0.5-4.1-1.4l-14.5,28.6c-0.5,0.9-1,1.7-1.6,2.4l-33.7,34.6c-2.1,2.4-5.1,3.6-8.2,3.6c-1.8,0-3.6-0.4-5.3-1.3
		c-4.7-2.4-7.1-7.4-6-12.6l7.9-47c0.3-1.2,0.6-2.2,1-3.1l9.3-18.3l-2.2-1.9c-3-2.5-3.3-7-0.8-10c2.4-2.8,6.5-3.2,9.5-1.1l4.3-8.4
		l-2.2-1.9c-3-2.5-3.3-7-0.8-10c2.4-2.8,6.5-3.2,9.5-1.1l4.1-8.1l-2.2-1.9c-3-2.5-3.3-7-0.8-10c2.4-2.8,6.5-3.2,9.5-1.1l4.1-8.1
		l-2.2-1.9c-3-2.5-3.3-7-0.8-10c2.4-2.8,6.6-3.2,9.5-1.1l4.1-8.1l-2.2-1.9c-3-2.5-3.3-7-0.8-10c2.4-2.8,6.5-3.2,9.5-1.1l4.1-8.1
		l-2.2-1.9c-3-2.5-3.3-7-0.8-10c2.4-2.8,6.5-3.2,9.5-1.1l4.1-8.1l-2.2-1.9c-3-2.5-3.3-7-0.8-10c2.4-2.8,6.5-3.2,9.5-1.1l4-7.8
		l-2.2-1.9c-3-2.5-3.3-7-0.8-10c2.4-2.8,6.5-3.2,9.5-1.1l8-15.7l-24.6-57.2c-1.9-4.5-0.9-9.5,2.7-12.8c3.5-3.3,8.6-4.1,13-1.8
		l38.6,19.6c4.8,2.4,7.1,7.7,6,12.7l21.2,10.7c3.3-3.9,9-5.1,13.8-2.7c0,0,0,0,0,0l38.6,19.6C378.7,138.8,381.1,143.3,380.5,148.1z"
		/>
	<path class="st0" d="M326.4,134.1c-2.9,1-6,0.7-8.7-0.7l-25.5-12.9c-2.7-1.4-4.7-3.7-5.7-6.6c-0.7-2-0.7-4.1-0.3-6.1l-29.6-15
		l22.1,51.4c1.3,3.1,1.2,6.6-0.3,9.7l-10.1,19.9l9.5,8.1c3,2.5,3.3,7,0.8,10c-1.4,1.6-3.4,2.5-5.4,2.5c-1.6,0-3.3-0.6-4.6-1.7
		l-6.9-5.9l-4,7.8l18,15.5l23.2-45.7c1.5-3,4.3-5.2,7.6-6l54.5-12.5l-29.6-15C330.2,132.3,328.5,133.4,326.4,134.1z"/>
</g>
</svg>
