<?xml version="1.0" encoding="utf-8"?>
<!-- Generator: Adobe Illustrator 22.0.1, SVG Export Plug-In . SVG Version: 6.00 Build 0)  -->
<svg version="1.1" id="Layer_1" xmlns="http://www.w3.org/2000/svg" xmlns:xlink="http://www.w3.org/1999/xlink" x="0px" y="0px"
	 viewBox="0 0 500 500" style="enable-background:new 0 0 500 500;" xml:space="preserve">
<style type="text/css">
	.st0{fill:#EA1C1C;}
</style>
<g>
	<polygon class="st0" points="-178.6,747.6 -160.6,763.1 -156.5,755 -174.5,739.5 	"/>
	<path class="st0" d="M-221.5,832.2l9.5,8.1c3,2.5,3.3,7,0.8,10c-1.4,1.6-3.4,2.5-5.4,2.5c-1.6,0-3.3-0.6-4.6-1.7l-6.9-5.9
		l-7.5,14.8l-6.4,38.2l27-27.7l15.8-31.1l-18-15.5L-221.5,832.2z"/>
	<polygon class="st0" points="-200,789.8 -181.9,805.2 -177.8,797.1 -195.9,781.7 	"/>
	<polygon class="st0" points="-210.7,810.8 -192.6,826.3 -188.5,818.2 -206.6,802.8 	"/>
	<polygon class="st0" points="-189.3,768.7 -171.3,784.2 -167.2,776.1 -185.2,760.6 	"/>
	<polygon class="st0" points="-167.9,726.5 -149.9,742 -145.8,733.9 -163.8,718.5 	"/>
	<path class="st0" d="M-164.9,554.1c-114.6,0-207.5,92.9-207.5,207.5S-279.5,969-164.9,969S42.6,876.1,42.6,761.6
		S-50.3,554.1-164.9,554.1z M-34.5,659.1c-0.6,4.8-4,8.6-8.8,9.7l-60.7,13.9l-24.2,47.7l2.2,1.9c3,2.5,3.3,7,0.8,10
		c-1.4,1.6-3.4,2.5-5.4,2.5c-1.4,0-2.9-0.5-4.1-1.4l-4.1,8.2l2.2,1.9c3,2.5,3.3,7,0.8,10c-1.4,1.6-3.4,2.5-5.4,2.5
		c-1.4,0-2.9-0.5-4.1-1.4l-4.1,8.2l2.2,1.9c3,2.5,3.3,7,0.8,10c-1.4,1.6-3.4,2.5-5.4,2.5c-1.4,0-2.9-0.5-4.1-1.4l-4.1,8.2l2.2,1.9
		c3,2.5,3.3,7,0.8,10c-1.4,1.6-3.4,2.5-5.4,2.5c-1.4,0-2.9-0.5-4.1-1.4l-4.1,8.2l2.2,1.9c3,2.5,3.3,7,0.8,10
		c-1.4,1.6-3.4,2.5-5.4,2.5c-1.4,0-2.9-0.5-4.1-1.4l-4.1,8.2l2.2,1.9c3,2.5,3.3,7,0.8,10c-1.4,1.6-3.4,2.5-5.4,2.5
		c-1.4,0-2.9-0.5-4.1-1.4l-14.5,28.6c-0.5,0.9-1,1.7-1.6,2.4l-33.7,34.6c-2.1,2.4-5.1,3.6-8.2,3.6c-1.8,0-3.6-0.4-5.3-1.3
		c-4.7-2.4-7.1-7.4-6-12.6l7.9-47c0.3-1.2,0.6-2.2,1-3.1l9.3-18.3l-2.2-1.9c-3-2.5-3.3-7-0.8-10c2.4-2.8,6.5-3.2,9.5-1.1l4.3-8.4
		l-2.2-1.9c-3-2.5-3.3-7-0.8-10c2.4-2.8,6.5-3.2,9.5-1.1l4.1-8.1l-2.2-1.9c-3-2.5-3.3-7-0.8-10c2.4-2.8,6.5-3.2,9.5-1.1l4.1-8.1
		l-2.2-1.9c-3-2.5-3.3-7-0.8-10c2.4-2.8,6.6-3.2,9.5-1.1l4.1-8.1l-2.2-1.9c-3-2.5-3.3-7-0.8-10c2.4-2.8,6.5-3.2,9.5-1.1l4.1-8.1
		l-2.2-1.9c-3-2.5-3.3-7-0.8-10c2.4-2.8,6.5-3.2,9.5-1.1l4.1-8.1l-2.2-1.9c-3-2.5-3.3-7-0.8-10c2.4-2.8,6.5-3.2,9.5-1.1l4-7.8
		l-2.2-1.9c-3-2.5-3.3-7-0.8-10c2.4-2.8,6.5-3.2,9.5-1.1l8-15.7l-24.6-57.2c-1.9-4.5-0.9-9.5,2.7-12.8c3.5-3.3,8.6-4.1,13-1.8
		l38.6,19.6c4.8,2.4,7.1,7.7,6,12.7l21.2,10.7c3.3-3.9,9-5.1,13.8-2.7c0,0,0,0,0,0l38.6,19.6C-36.3,649.8-33.9,654.3-34.5,659.1z"/>
	<path class="st0" d="M-88.6,645.1c-2.9,1-6,0.7-8.7-0.7l-25.5-12.9c-2.7-1.4-4.7-3.7-5.7-6.6c-0.7-2-0.7-4.1-0.3-6.1l-29.6-15
		l22.1,51.4c1.3,3.1,1.2,6.6-0.3,9.7l-10.1,19.9l9.5,8.1c3,2.5,3.3,7,0.8,10c-1.4,1.6-3.4,2.5-5.4,2.5c-1.6,0-3.3-0.6-4.6-1.7
		l-6.9-5.9l-4,7.8l18,15.5l23.2-45.7c1.5-3,4.3-5.2,7.6-6l54.5-12.5l-29.6-15C-84.8,643.3-86.5,644.4-88.6,645.1z"/>
</g>
<g>
	<g>
		<g>
			<path class="st0" d="M249.6,457.3c-55.2,0-107.1-21.5-146.1-60.5c-39-39-60.5-90.9-60.5-146.1s21.5-107.1,60.5-146.1
				c39-39,90.9-60.5,146.1-60.5s107.1,21.5,146.1,60.5c39,39,60.5,90.9,60.5,146.1c0,55.2-21.5,107.1-60.5,146.1
				C356.7,435.8,304.8,457.3,249.6,457.3z M249.6,63.1C146.2,63.1,62,147.3,62,250.7s84.2,187.6,187.6,187.6
				c103.4,0,187.6-84.2,187.6-187.6S353.1,63.1,249.6,63.1z"/>
		</g>
	</g>
	<g>
		<path class="st0" d="M361,156.7l-34.7-17.6h0c-4.3-2.2-9.4-1-12.4,2.4l-19.1-9.7c1-4.5-1.1-9.3-5.4-11.5l-34.7-17.6
			c-3.9-2-8.5-1.3-11.7,1.7c-3.2,3-4.1,7.5-2.4,11.5l22.1,51.4l-7.2,14.2c-2.7-1.9-6.4-1.5-8.5,1c-2.3,2.7-2,6.7,0.7,9l1.9,1.7
			l-3.6,7.1c-2.7-1.9-6.4-1.5-8.5,1c-2.3,2.7-2,6.7,0.7,9l1.9,1.7l-3.7,7.3c-2.7-1.9-6.4-1.5-8.5,1c-2.3,2.7-2,6.7,0.7,9l1.9,1.7
			l-3.7,7.3c-2.7-1.9-6.4-1.5-8.5,1c-2.3,2.7-2,6.7,0.7,9l1.9,1.7l-3.7,7.3c-2.7-1.9-6.4-1.5-8.5,1c-2.3,2.7-2,6.7,0.7,9l1.9,1.7
			l-3.7,7.3c-2.7-1.9-6.4-1.5-8.5,1c-2.3,2.7-2,6.7,0.7,9l1.9,1.7L198,295c-2.7-1.9-6.4-1.5-8.5,1c-2.3,2.7-2,6.7,0.7,9l1.9,1.7
			l-3.8,7.6c-2.7-1.9-6.4-1.5-8.5,1c-2.3,2.7-2,6.7,0.7,9l1.9,1.7l-8.3,16.4c-0.4,0.8-0.7,1.7-0.9,2.8l-7.1,42.2
			c-1,4.6,1.2,9.2,5.4,11.3c1.5,0.8,3.2,1.1,4.7,1.1c2.8,0,5.5-1.1,7.4-3.3l30.3-31.1c0.6-0.6,1.1-1.4,1.5-2.2l13-25.7
			c1.1,0.8,2.4,1.3,3.7,1.3c1.8,0,3.6-0.8,4.8-2.2c2.3-2.7,2-6.7-0.7-9l-1.9-1.7l3.7-7.4c1.1,0.8,2.4,1.3,3.7,1.3
			c1.8,0,3.6-0.8,4.8-2.2c2.3-2.7,2-6.7-0.7-9l-1.9-1.7l3.7-7.4c1.1,0.8,2.4,1.3,3.7,1.3c1.8,0,3.6-0.8,4.8-2.2c2.3-2.7,2-6.7-0.7-9
			l-1.9-1.7l3.7-7.4c1.1,0.8,2.4,1.3,3.7,1.3c1.8,0,3.6-0.8,4.8-2.2c2.3-2.7,2-6.7-0.7-9l-1.9-1.7l3.7-7.4c1.1,0.8,2.4,1.3,3.7,1.3
			c1.8,0,3.6-0.8,4.8-2.2c2.3-2.7,2-6.7-0.7-9l-1.9-1.7l3.7-7.4c1.1,0.8,2.4,1.3,3.7,1.3c1.8,0,3.6-0.8,4.8-2.2c2.3-2.7,2-6.7-0.7-9
			l-1.9-1.7l21.8-42.9l54.6-12.5c4.3-1,7.4-4.4,7.9-8.8C367.1,162.7,364.9,158.6,361,156.7z M204.1,357.1l-24.3,24.9l5.8-34.3
			l6.8-13.3l6.2,5.3c1.2,1,2.7,1.5,4.1,1.5c1.8,0,3.6-0.8,4.8-2.2c2.3-2.7,2-6.7-0.7-9l-8.5-7.3l3.8-7.5l16.2,13.9L204.1,357.1z
			 M208,303.5l3.7-7.3l16.2,13.9l-3.7,7.3L208,303.5z M217.6,284.6l3.7-7.3l16.2,13.9l-3.7,7.3L217.6,284.6z M227.3,265.6l3.7-7.3
			l16.2,13.9l-3.7,7.3L227.3,265.6z M236.9,246.7l3.7-7.3l16.2,13.9l-3.7,7.3L236.9,246.7z M246.5,227.7l3.7-7.3l16.2,13.9l-3.7,7.3
			L246.5,227.7z M300.1,176.2c-3,0.7-5.5,2.6-6.8,5.4l-20.9,41.1l-16.2-13.9l3.6-7l6.2,5.3c1.2,1,2.7,1.5,4.1,1.5
			c1.8,0,3.6-0.8,4.8-2.2c2.3-2.7,2-6.7-0.7-9l-8.5-7.3l9.1-17.9c1.4-2.7,1.5-5.9,0.3-8.7l-19.9-46.2l26.7,13.5
			c-0.4,1.8-0.3,3.7,0.3,5.5c0.9,2.6,2.7,4.7,5.1,6l22.9,11.6c2.4,1.2,5.2,1.5,7.8,0.6c1.8-0.6,3.4-1.6,4.6-3l26.7,13.5L300.1,176.2
			z"/>
	</g>
</g>
</svg>
