<svg xmlns="http://www.w3.org/2000/svg" viewBox="0 0 87.91 87.91"><defs><style>.cls-1{fill:#fff;}</style></defs><title>material</title><g id="Layer_2" data-name="Layer 2"><g id="Layer_2-2" data-name="Layer 2"><polygon class="cls-1" points="41.05 41 44.87 44.28 45.74 42.56 41.92 39.29 41.05 41"/><path class="cls-1" d="M32,58.92l2,1.72a1.5,1.5,0,1,1-2,2.28l-1.45-1.24L29,64.81,27.61,72.9,33.33,67l3.35-6.6-3.82-3.28Z"/><polygon class="cls-1" points="36.52 49.93 40.34 53.21 41.21 51.49 37.39 48.22 36.52 49.93"/><polygon class="cls-1" points="34.25 54.4 38.08 57.67 38.94 55.96 35.12 52.68 34.25 54.4"/><polygon class="cls-1" points="38.78 45.47 42.61 48.74 43.48 47.03 39.65 43.75 38.78 45.47"/><polygon class="cls-1" points="43.32 36.54 47.14 39.81 48.01 38.1 44.19 34.82 43.32 36.54"/><path class="cls-1" d="M44,0a44,44,0,1,0,44,44A44,44,0,0,0,44,0ZM71.59,22.26a2.39,2.39,0,0,1-1.86,2.06L56.87,27.26l-5.12,10.1.46.39a1.49,1.49,0,0,1-1.85,2.34l-.88,1.73.46.39a1.49,1.49,0,0,1-1.85,2.34l-.88,1.73.46.39A1.49,1.49,0,0,1,45.83,49L45,50.75l.46.39a1.49,1.49,0,0,1-1.85,2.34l-.88,1.73.46.39a1.49,1.49,0,0,1-1.85,2.34l-.88,1.73.46.39A1.49,1.49,0,0,1,39,62.41l-3.07,6a2.45,2.45,0,0,1-.35.51L28.48,76.3a2.31,2.31,0,0,1-1.73.77,2.47,2.47,0,0,1-1.12-.27,2.39,2.39,0,0,1-1.27-2.66L26,64.19a2.5,2.5,0,0,1,.22-.65l2-3.87-.46-.39a1.5,1.5,0,0,1,1.85-2.35l.9-1.78-.46-.39A1.5,1.5,0,0,1,31.9,52.4l.87-1.72-.46-.39a1.5,1.5,0,0,1,1.85-2.35L35,46.21l-.46-.39a1.5,1.5,0,0,1,1.85-2.35l.87-1.72-.46-.39A1.5,1.5,0,0,1,38.7,39l.87-1.72-.46-.39A1.5,1.5,0,0,1,41,34.54l.87-1.72-.46-.39a1.5,1.5,0,0,1,1.85-2.35l.84-1.66L43.62,28a1.5,1.5,0,0,1,1.85-2.35l1.69-3.34L41.95,10.22a2.42,2.42,0,0,1,3.31-3.11l8.17,4.15A2.42,2.42,0,0,1,54.7,14l4.49,2.28a2.42,2.42,0,0,1,2.92-.57h0l8.17,4.15A2.39,2.39,0,0,1,71.59,22.26Z"/><path class="cls-1" d="M60.13,19.28a2.39,2.39,0,0,1-1.85-.14l-5.4-2.74a2.42,2.42,0,0,1-1.26-2.7l-6.28-3.19L50,21.4a2.41,2.41,0,0,1-.06,2l-2.14,4.22,2,1.72a1.5,1.5,0,1,1-2,2.28l-1.45-1.24-.84,1.65,3.82,3.28,4.92-9.69a2.41,2.41,0,0,1,1.61-1.26l11.55-2.65-6.28-3.19A2.41,2.41,0,0,1,60.13,19.28Z"/></g></g></svg>