<svg xmlns="http://www.w3.org/2000/svg" viewBox="0 0 76 94"><defs><style>.cls-1{fill:#fff;}</style></defs><title>Asset 6</title><g id="Layer_2" data-name="Layer 2"><g id="Layer_1-2" data-name="Layer 1"><path class="cls-1" d="M76,94H0V0H76ZM4,90H72V4H4Z"/><path class="cls-1" d="M65,23H38a2,2,0,0,1,0-4H65a2,2,0,0,1,0,4Z"/><path class="cls-1" d="M65,35.4H38a2,2,0,0,1,0-4H65a2,2,0,0,1,0,4Z"/><path class="cls-1" d="M65,63.2H46a2,2,0,0,1,0-4H65a2,2,0,0,1,0,4Z"/><path class="cls-1" d="M38,63H11a2,2,0,0,1,0-4H38a2,2,0,0,1,0,4Z"/><path class="cls-1" d="M65,50.8H11a2,2,0,0,1,0-4H65a2,2,0,0,1,0,4Z"/><path class="cls-1" d="M65,75.6H11a2,2,0,0,1,0-4H65a2,2,0,0,1,0,4Z"/><path class="cls-1" d="M31,37H11V18H31ZM15,33H27V22H15Z"/></g></g></svg>