<?xml version="1.0" encoding="utf-8"?>
<!-- Generator: Adobe Illustrator 22.0.1, SVG Export Plug-In . SVG Version: 6.00 Build 0)  -->
<svg version="1.1" id="Layer_1" xmlns="http://www.w3.org/2000/svg" xmlns:xlink="http://www.w3.org/1999/xlink" x="0px" y="0px"
	 viewBox="0 0 500 500" style="enable-background:new 0 0 500 500;" xml:space="preserve">
<style type="text/css">
	.st0{fill:#EA1C1C;}
	.st1{fill:none;stroke:#EA1C1C;stroke-width:15;stroke-linecap:round;stroke-linejoin:round;stroke-miterlimit:10;}
</style>
<path class="st0" d="M347.2,200.4c0,55-43.3,99.7-96.6,99.7S154,255.4,154,200.4H347.2z"/>
<path class="st0" d="M249.7,291.9c85.5,0,154.9,69.3,154.9,154.9c0,3.8-0.2,7.5-0.5,11.3l-308.9-1.5c-0.2-3.2-0.3-6.5-0.3-9.8
	C94.9,361.2,164.2,291.9,249.7,291.9"/>
<path class="st1" d="M374.7,190.4L374.7,190.4c-82.8,13.3-167.2,13.3-249.9,0l0,0"/>
<path class="st0" d="M296.4,63.4l-23.1,65.1c-0.5,1.4-1.8,2.4-3.3,2.4h-41.4c-1.5,0-2.8-1-3.3-2.4l-22.4-64.9c-0.7-2-2.9-3-4.8-2.1
	c-43.2,19.7-73.3,63.1-73.3,113.7h0c81.8,13.1,165.1,13.3,246.9,0.5c1.8-0.3,3.1-1.8,3-3.6c-1.2-49.3-31-91.4-73.4-110.7
	C299.4,60.5,297.1,61.5,296.4,63.4z"/>
<path class="st0" d="M211.5,53.9c0,0,32.6-25,76.4,0l-21.3,64.5h-34.4L211.5,53.9z"/>
<path class="st0" d="M211.6,291.9"/>
</svg>
