<svg xmlns="http://www.w3.org/2000/svg" viewBox="0 0 94.57 86.39"><defs><style>.cls-1,.cls-2{fill:none;stroke:#000;stroke-linecap:round;stroke-linejoin:round;}.cls-1{stroke-width:3.16px;}.cls-2{stroke-width:3px;}</style></defs><title>Asset 42</title><g id="Layer_2" data-name="Layer 2"><g id="Layer_3" data-name="Layer 3"><path class="cls-1" d="M66.69,32a19.23,19.23,0,1,1-38.46,0"/><path class="cls-1" d="M47.29,51.62A28.92,28.92,0,0,1,76.2,80.54c0,.7,0,1.4-.09,2.1"/><path class="cls-1" d="M18.44,82.37c0-.61-.07-1.22-.07-1.83A28.92,28.92,0,0,1,47.29,51.62"/><path class="cls-1" d="M72.16,29.38h0a156.66,156.66,0,0,1-49.75,0h0"/><path d="M56.58,4.11,52,17.06a.69.69,0,0,1-.66.46H43.08a.69.69,0,0,1-.66-.47L38,4.13a.71.71,0,0,0-1-.42,24.86,24.86,0,0,0-14.6,22.63h0a156.6,156.6,0,0,0,49.13.1.72.72,0,0,0,.61-.72,24.87,24.87,0,0,0-14.61-22A.72.72,0,0,0,56.58,4.11Z"/><path d="M39.68,2.22s6.48-5,15.21,0L50.65,15.05H43.8Z"/><line class="cls-2" x1="93.07" y1="83.89" x2="1.5" y2="84.89"/></g></g></svg>