<svg xmlns="http://www.w3.org/2000/svg" viewBox="0 0 96.49 96.49"><defs><style>.cls-1{fill:#fff;}</style></defs><title>part</title><g id="Layer_2" data-name="Layer 2"><g id="Layer_2-2" data-name="Layer 2"><path class="cls-1" d="M48.25,0A48.25,48.25,0,1,0,96.49,48.25,48.25,48.25,0,0,0,48.25,0ZM82.93,33.66a3.16,3.16,0,1,1-2,4A3.16,3.16,0,0,1,82.93,33.66Zm-6.21-10a3.16,3.16,0,1,1-.7,4.41A3.16,3.16,0,0,1,76.72,23.66Zm1.52,24.59a30,30,0,1,1-30-30A30,30,0,0,1,78.24,48.25ZM67.73,16.06a3.16,3.16,0,1,1,.7,4.41A3.16,3.16,0,0,1,67.73,16.06Zm-10.9-4.44a3.16,3.16,0,1,1,2,4A3.16,3.16,0,0,1,56.83,11.62Zm-8.58-4a3.16,3.16,0,1,1-3.16,3.16A3.16,3.16,0,0,1,48.25,7.6Zm-12.56,2a3.16,3.16,0,1,1-2,4A3.16,3.16,0,0,1,35.69,9.59ZM24.35,15.36a3.16,3.16,0,1,1-.7,4.41A3.16,3.16,0,0,1,24.35,15.36Zm-9,9a3.16,3.16,0,1,1,.7,4.41A3.16,3.16,0,0,1,15.36,24.35ZM9.59,35.69a3.16,3.16,0,1,1,2,4A3.16,3.16,0,0,1,9.59,35.69Zm-2,12.56a3.16,3.16,0,1,1,3.16,3.16A3.16,3.16,0,0,1,7.6,48.25Zm6,14.59a3.16,3.16,0,1,1,2-4A3.16,3.16,0,0,1,13.57,62.84Zm6.21,10a3.16,3.16,0,1,1,.7-4.41A3.16,3.16,0,0,1,19.77,72.84Zm9,7.59a3.16,3.16,0,1,1-.7-4.41A3.16,3.16,0,0,1,28.77,80.43Zm10.9,4.44a3.16,3.16,0,1,1-2-4A3.16,3.16,0,0,1,39.67,84.88Zm8.58,4a3.16,3.16,0,1,1,3.16-3.16A3.16,3.16,0,0,1,48.25,88.9Zm12.56-2a3.16,3.16,0,1,1,2-4A3.16,3.16,0,0,1,60.81,86.91Zm11.33-5.77a3.16,3.16,0,1,1,.7-4.41A3.16,3.16,0,0,1,72.14,81.13Zm9-9a3.16,3.16,0,1,1-.7-4.41A3.16,3.16,0,0,1,81.13,72.14Zm5.77-11.33a3.16,3.16,0,1,1-2-4A3.16,3.16,0,0,1,86.91,60.81Zm-1.17-9.4a3.16,3.16,0,1,1,3.16-3.16A3.16,3.16,0,0,1,85.74,51.41Z"/><path class="cls-1" d="M48.25,62.83A14.58,14.58,0,1,1,62.83,48.25,14.6,14.6,0,0,1,48.25,62.83Zm0-26.2A11.62,11.62,0,1,0,59.86,48.25,11.63,11.63,0,0,0,48.25,36.63Z"/></g></g></svg>