<?xml version="1.0" encoding="utf-8"?>
<!-- Generator: Adobe Illustrator 22.0.1, SVG Export Plug-In . SVG Version: 6.00 Build 0)  -->
<svg version="1.1" id="Layer_1" xmlns="http://www.w3.org/2000/svg" xmlns:xlink="http://www.w3.org/1999/xlink" x="0px" y="0px"
	 viewBox="0 0 500 500" style="enable-background:new 0 0 500 500;" xml:space="preserve">
<style type="text/css">
	.st0{fill:#EA1C1C;}
</style>
<g>
	<g>
		<path class="st0" d="M251.2,43C136.4,43,43.3,135.9,43.3,250.5S136.4,458,251.2,458S459,365.1,459,250.5S366,43,251.2,43z
			 M400.6,187.8c7.1-2.3,14.8,1.6,17.1,8.7c2.3,7.1-1.6,14.8-8.7,17.1c-7.1,2.3-14.8-1.6-17.1-8.7
			C389.5,197.7,393.4,190.1,400.6,187.8z M373.8,144.7c6.1-4.4,14.6-3.1,19,3c4.4,6.1,3.1,14.6-3,19c-6.1,4.4-14.6,3.1-19-3
			C366.4,157.6,367.7,149.1,373.8,144.7z M380.4,250.5c0,71.1-58,129-129.2,129S122,321.6,122,250.5s58-129,129.2-129
			S380.4,179.4,380.4,250.5z M335.1,112.1c4.4-6.1,12.9-7.4,19-3s7.4,12.9,3,19c-4.4,6.1-12.9,7.4-19,3
			C332,126.6,330.7,118.1,335.1,112.1z M288.1,93c2.3-7.1,10-11,17.1-8.7c7.1,2.3,11.1,10,8.7,17.1c-2.3,7.1-10,11-17.1,8.7
			C289.7,107.8,285.8,100.1,288.1,93z M251.2,75.7c7.5,0,13.6,6.1,13.6,13.6c0,7.5-6.1,13.6-13.6,13.6c-7.5,0-13.6-6.1-13.6-13.6
			C237.6,81.8,243.7,75.7,251.2,75.7z M197.1,84.2c7.1-2.3,14.8,1.6,17.1,8.7c2.3,7.1-1.6,14.8-8.7,17.1c-7.1,2.3-14.8-1.6-17.1-8.7
			C186,94.2,189.9,86.6,197.1,84.2z M148.3,109.1c6.1-4.4,14.6-3.1,19,3c4.4,6.1,3.1,14.6-3,19c-6.1,4.4-14.6,3.1-19-3
			C140.8,122,142.2,113.5,148.3,109.1z M109.5,147.7c4.4-6.1,12.9-7.4,19-3c6.1,4.4,7.4,12.9,3,19c-4.4,6.1-12.9,7.4-19,3
			C106.4,162.3,105.1,153.8,109.5,147.7z M84.6,196.5c2.3-7.1,10-11,17.1-8.7c7.1,2.3,11.1,10,8.7,17.1c-2.3,7.1-10,11-17.1,8.7
			C86.2,211.3,82.3,203.6,84.6,196.5z M76.1,250.5c0-7.5,6.1-13.6,13.6-13.6c7.5,0,13.6,6.1,13.6,13.6s-6.1,13.6-13.6,13.6
			C82.2,264.1,76.1,258,76.1,250.5z M101.8,313.2c-7.1,2.3-14.8-1.6-17.1-8.7c-2.3-7.1,1.6-14.8,8.7-17.1c7.1-2.3,14.8,1.6,17.1,8.7
			C112.8,303.3,108.9,310.9,101.8,313.2z M128.5,356.3c-6.1,4.4-14.6,3.1-19-3c-4.4-6.1-3.1-14.6,3-19c6.1-4.4,14.6-3.1,19,3
			C135.9,343.4,134.6,351.9,128.5,356.3z M167.3,388.9c-4.4,6.1-12.9,7.4-19,3c-6.1-4.4-7.4-12.9-3-19c4.4-6.1,12.9-7.4,19-3
			C170.3,374.4,171.7,382.9,167.3,388.9z M214.2,408c-2.3,7.1-10,11-17.1,8.7c-7.1-2.3-11.1-10-8.7-17.1c2.3-7.1,10-11,17.1-8.7
			C212.6,393.2,216.5,400.9,214.2,408z M251.2,425.3c-7.5,0-13.6-6.1-13.6-13.6s6.1-13.6,13.6-13.6c7.5,0,13.6,6.1,13.6,13.6
			S258.7,425.3,251.2,425.3z M305.3,416.8c-7.1,2.3-14.8-1.6-17.1-8.7c-2.3-7.1,1.6-14.8,8.7-17.1c7.1-2.3,14.8,1.6,17.1,8.7
			S312.4,414.4,305.3,416.8z M354.1,391.9c-6.1,4.4-14.6,3.1-19-3c-4.4-6.1-3.1-14.6,3-19c6.1-4.4,14.6-3.1,19,3
			C361.5,379,360.2,387.5,354.1,391.9z M392.8,353.3c-4.4,6.1-12.9,7.4-19,3c-6.1-4.4-7.4-12.9-3-19c4.4-6.1,12.9-7.4,19-3
			C395.9,338.7,397.2,347.2,392.8,353.3z M417.7,304.5c-2.3,7.1-10,11-17.1,8.7c-7.1-2.3-11.1-10-8.7-17.1c2.3-7.1,10-11,17.1-8.7
			C416.1,289.7,420,297.4,417.7,304.5z M412.7,264.1c-7.5,0-13.6-6.1-13.6-13.6s6.1-13.6,13.6-13.6c7.5,0,13.6,6.1,13.6,13.6
			S420.2,264.1,412.7,264.1z"/>
	</g>
	<g>
		<path class="st0" d="M251.2,313.2c-34.6,0-62.8-28.1-62.8-62.7c0-34.6,28.2-62.7,62.8-62.7s62.8,28.1,62.8,62.7
			C314,285.1,285.8,313.2,251.2,313.2z M251.2,200.5c-27.6,0-50,22.4-50,50s22.5,50,50,50s50-22.4,50-50S278.8,200.5,251.2,200.5z"
			/>
	</g>
</g>
</svg>
