<svg xmlns="http://www.w3.org/2000/svg" viewBox="0 0 99.49 99.49"><defs><style>.cls-1{fill:none;stroke:#000;stroke-linecap:round;stroke-linejoin:round;stroke-width:3px;}</style></defs><title>part-line</title><g id="Layer_2" data-name="Layer 2"><g id="Layer_2-2" data-name="Layer 2"><circle class="cls-1" cx="49.75" cy="49.75" r="48.25"/><circle class="cls-1" cx="49.75" cy="49.75" r="13.1"/><circle cx="49.44" cy="12.26" r="3.16"/><circle cx="37.86" cy="14.09" r="3.16" transform="translate(-2.5 12.39) rotate(-18)"/><circle cx="27.41" cy="19.42" r="3.16" transform="translate(-6.18 19.82) rotate(-36)"/><circle cx="19.11" cy="27.71" r="3.16" transform="translate(-14.54 26.88) rotate(-54)"/><circle cx="13.79" cy="38.16" r="3.16" transform="translate(-26.77 39.48) rotate(-72)"/><circle cx="11.95" cy="49.75" r="3.16"/><circle cx="13.79" cy="61.33" r="3.16" transform="translate(-18.28 7.26) rotate(-18)"/><circle cx="19.11" cy="71.78" r="3.16" transform="translate(-38.54 24.94) rotate(-36)"/><circle cx="27.41" cy="80.08" r="3.16" transform="translate(-53.49 55.18) rotate(-54)"/><circle cx="37.86" cy="85.4" r="3.16" transform="matrix(0.31, -0.95, 0.95, 0.31, -55.06, 95.01)"/><circle cx="49.44" cy="87.24" r="3.16"/><circle cx="61.03" cy="85.4" r="3.16" transform="translate(-23.4 23.04) rotate(-18)"/><circle cx="71.48" cy="80.08" r="3.16" transform="translate(-33.42 57.31) rotate(-36)"/><circle cx="79.77" cy="71.78" r="3.16" transform="translate(-25.19 94.13) rotate(-54)"/><circle cx="85.1" cy="61.33" r="3.16" transform="translate(0.47 123.31) rotate(-72)"/><circle cx="86.93" cy="49.75" r="3.16"/><circle cx="85.1" cy="38.16" r="3.16" transform="translate(-7.63 28.16) rotate(-18)"/><circle cx="79.77" cy="27.71" r="3.16" transform="translate(-1.05 52.18) rotate(-36)"/><circle cx="71.48" cy="19.42" r="3.16" transform="translate(13.75 65.83) rotate(-54)"/><circle cx="61.03" cy="14.09" r="3.16" transform="translate(28.76 67.78) rotate(-72)"/><circle class="cls-1" cx="49.75" cy="49.75" r="28.52"/></g></g></svg>