<svg xmlns="http://www.w3.org/2000/svg" viewBox="0 0 94 89.1"><defs><style>.cls-1{fill:#fff;}</style></defs><title>Asset 5</title><g id="Layer_2" data-name="Layer 2"><g id="Layer_1-2" data-name="Layer 1"><path class="cls-1" d="M14.59,20.2h-9A5.61,5.61,0,0,1,0,14.59v-9A5.61,5.61,0,0,1,5.61,0h9A5.61,5.61,0,0,1,20.2,5.61v9A5.61,5.61,0,0,1,14.59,20.2ZM5.61,4A1.61,1.61,0,0,0,4,5.61v9A1.61,1.61,0,0,0,5.61,16.2h9a1.61,1.61,0,0,0,1.61-1.61v-9A1.61,1.61,0,0,0,14.59,4Z"/><path class="cls-1" d="M14.59,54.65h-9A5.61,5.61,0,0,1,0,49v-9a5.61,5.61,0,0,1,5.61-5.61h9a5.61,5.61,0,0,1,5.61,5.61v9A5.61,5.61,0,0,1,14.59,54.65Zm-9-16.2A1.61,1.61,0,0,0,4,40.06v9a1.61,1.61,0,0,0,1.61,1.61h9A1.61,1.61,0,0,0,16.2,49v-9a1.61,1.61,0,0,0-1.61-1.61Z"/><path class="cls-1" d="M14.59,89.1h-9A5.61,5.61,0,0,1,0,83.49v-9A5.61,5.61,0,0,1,5.61,68.9h9a5.61,5.61,0,0,1,5.61,5.61v9A5.61,5.61,0,0,1,14.59,89.1Zm-9-16.2A1.61,1.61,0,0,0,4,74.51v9A1.61,1.61,0,0,0,5.61,85.1h9a1.61,1.61,0,0,0,1.61-1.61v-9a1.61,1.61,0,0,0-1.61-1.61Z"/><path class="cls-1" d="M92,10.1H38a2,2,0,0,1,0-4H92a2,2,0,0,1,0,4Z"/><path class="cls-1" d="M92,45.3H38a2,2,0,0,1,0-4H92a2,2,0,0,1,0,4Z"/><path class="cls-1" d="M92,83H38a2,2,0,0,1,0-4H92a2,2,0,0,1,0,4Z"/></g></g></svg>