<svg xmlns="http://www.w3.org/2000/svg" viewBox="0 0 64.65 83.88"><defs><style>.cls-1{fill:none;stroke:#000;stroke-linecap:round;stroke-linejoin:round;stroke-width:3px;}</style></defs><title>oppAsset 50</title><g id="Layer_2" data-name="Layer 2"><g id="Layer_3" data-name="Layer 3"><path class="cls-1" d="M52.83,22.45a20.51,20.51,0,1,1-41,0"/><path class="cls-1" d="M32.33,43.4A30.83,30.83,0,0,1,63.15,74.23c0,.76,0,1.5-.09,2.25"/><path class="cls-1" d="M1.57,76.18c0-.64-.07-1.29-.07-2A30.83,30.83,0,0,1,32.33,43.4"/><path class="cls-1" d="M11.82,22a20.51,20.51,0,1,1,41,0"/><path d="M34.59,51.58l3.6-6.64a.27.27,0,0,0-.23-.39H26.7a.26.26,0,0,0-.23.39l3.59,6.64L26.29,68.91a.58.58,0,0,0,0,.32l5.87,14.31a.55.55,0,0,0,1,0l5.13-14.29a.51.51,0,0,0,0-.3Z"/></g></g></svg>