<svg xmlns="http://www.w3.org/2000/svg" viewBox="0 0 88.82 88.37"><title>tooling-line</title><g id="Layer_2" data-name="Layer 2"><g id="Layer_2-2" data-name="Layer 2"><path d="M27.85,3.25A15,15,0,0,1,34.5,15.69c.08,6.75-4.24,12.68-11,15.09l-2.16.77.18,2.29,3.75,48.33a3.54,3.54,0,0,1-3,3.2H16.34a2.79,2.79,0,0,1-2.79-2.49l2.83-48.61.14-2.44-2.36-.63A14.45,14.45,0,0,1,3,17.26C2.95,12.35,5.84,6.75,10,3.39l.14,12.44V17l.83.86,5.45,5.65,2.09,2.16,2.16-2.09,6.36-6.16.93-.9V15.25l-.14-12M28.28,0H24.81L25,15.28l-6.36,6.16L13.18,15.8,13,0H9.62C4.24,3.53-.08,10.48,0,17.29.1,25.71,5.73,32,13.39,34.09L10.55,82.83a5.77,5.77,0,0,0,5.79,5.54h6a6.47,6.47,0,0,0,5.92-6.31L24.5,33.61c7.6-2.71,13.09-9.53,13-17.95A18.06,18.06,0,0,0,28.28,0Z"/><path d="M60.39,3l6,.08c2.41,2.32,4.89,3.5,7.38,3.5a8.5,8.5,0,0,0,6.55-3.3l5.25.07L85.79,14,80.88,14a8.74,8.74,0,0,0-6.42-3.56H74.1a7.66,7.66,0,0,0-5.78,2.44c-3.07,3.32-2.74,8.75-2.69,9.38l5.18,60.73a2.23,2.23,0,0,1-.68,1.44,3.38,3.38,0,0,1-2.37,1H62.11a3.1,3.1,0,0,1-3-2.78L61.89,22a10.48,10.48,0,0,0-2.5-8.21c-2.14-2.3-5.46-3.47-9.87-3.47h0a33.09,33.09,0,0,0-5.54.52,10.55,10.55,0,0,1,5-3.78,20.71,20.71,0,0,1,6.47-1.33,4.76,4.76,0,0,0,2.8-1L60.39,3M60,0a1.8,1.8,0,0,0-1.12.39l-2.45,2a1.78,1.78,0,0,1-1,.39c-2.49.1-12.34,1-15.18,9A1.92,1.92,0,0,0,42,14.26a1.87,1.87,0,0,0,.42,0,33.06,33.06,0,0,1,7.12-.89c5,0,9.87,1.7,9.38,8.51L56.09,82.57a6.07,6.07,0,0,0,6,5.8h5.69c3.27,0,6.1-2.55,6-5.55L68.61,22s-.67-8.56,5.49-8.56h.17a5.72,5.72,0,0,1,4.41,2.67,1.89,1.89,0,0,0,1.58.89l6.74.09h0a1.78,1.78,0,0,0,1.79-1.83l-.24-13A1.92,1.92,0,0,0,86.69.37L79.8.28h0A1.77,1.77,0,0,0,78.34,1a5.88,5.88,0,0,1-4.55,2.6c-1.54,0-3.41-.74-5.58-2.94A1.89,1.89,0,0,0,66.9.1L60,0Z"/></g></g></svg>