<?xml version="1.0" encoding="utf-8"?>
<!-- Generator: Adobe Illustrator 22.0.1, SVG Export Plug-In . SVG Version: 6.00 Build 0)  -->
<svg version="1.1" id="Layer_1" xmlns="http://www.w3.org/2000/svg" xmlns:xlink="http://www.w3.org/1999/xlink" x="0px" y="0px"
	 viewBox="0 0 500 500" style="enable-background:new 0 0 500 500;" xml:space="preserve">
<style type="text/css">
	.st0{fill:#EA1C1C;}
</style>
<g>
	<path class="st0" d="M156.2,200.5c35.7-12.7,61.4-44.7,61-84.2c-0.4-31.9-17.7-59.1-43.2-73.5h-16.3l0.8,71.7l-29.8,28.9
		l-25.6-26.5l-0.8-74.1H86.4C61.2,59.3,40.9,92,41.3,123.9c0.4,39.5,26.9,69.2,62.8,78.8L90.8,431.4c0.2,14.2,12.9,26.6,28.4,26
		h26.9c15.5-0.7,27.9-15.4,27.8-29.6L156.2,200.5z"/>
	<path class="st0" d="M304.4,430.2c0.3,14.2,12.5,27,28.1,27.2h26.3c15.5,0.2,29.1-11.8,28.8-26.1l-24.4-285.5
		c0,0-3.1-40.3,25.9-40.2c0.2,0,0.5,0,0.7,0c2.2,0.1,13.8,1.4,20.7,12.5c1.6,2.6,4.4,4.1,7.4,4.2l31.6,0.4c4.8,0.1,8.6-3.8,8.5-8.6
		l-1.1-60.9c-0.1-4.8-4-8.7-8.8-8.8l-32.3-0.5c-2.7,0-5.2,1.2-6.8,3.3c-5.7,7.7-22.3,23.9-47.5-1.6c-1.6-1.7-3.9-2.6-6.2-2.6
		l-32.4-0.5c-2,0-3.9,0.6-5.4,1.8l-11.5,9.2c-1.4,1.1-3.1,1.7-4.9,1.8c-11.7,0.5-57.9,4.7-71.2,42.3c-2.3,6.5,3.7,13.1,10.4,11.6
		c26.3-6,80.9-12.8,77.4,35.7L304.4,430.2z"/>
</g>
</svg>
