<?xml version="1.0" standalone="no"?>
<!DOCTYPE svg PUBLIC "-//W3C//DTD SVG 20010904//EN"
 "http://www.w3.org/TR/2001/REC-SVG-20010904/DTD/svg10.dtd">
<svg version="1.0" xmlns="http://www.w3.org/2000/svg"
 width="230.000000pt" height="230.000000pt" viewBox="0 0 230.000000 230.000000"
 preserveAspectRatio="xMidYMid meet">
<metadata>
Created by potrace 1.11, written by Peter Selinger 2001-2013
</metadata>
<g transform="translate(0.000000,230.000000) scale(0.100000,-0.100000)"
fill="#000000" stroke="none">
<path d="M1163 2078 c-9 -12 -47 -133 -58 -183 -2 -11 -25 -94 -50 -185 -26
-91 -48 -172 -50 -180 -2 -8 -25 -89 -50 -180 -26 -91 -57 -203 -70 -250 -12
-47 -53 -193 -90 -325 -37 -132 -85 -305 -107 -385 -22 -80 -41 -147 -43 -150
-2 -3 0 -11 3 -17 6 -9 14 -9 32 0 20 10 32 42 87 242 35 127 65 237 68 245 2
8 20 74 40 145 20 72 54 195 76 275 22 80 49 177 60 215 11 39 21 77 23 86 7
27 136 490 157 561 10 36 19 73 19 82 0 19 -33 21 -47 4z"/>
<path d="M249 1828 c0 -2 -1 -48 -2 -103 -1 -110 -7 -101 71 -104 l32 -1 0
-362 c-1 -406 -8 -479 -60 -584 -31 -64 -74 -107 -155 -154 -22 -13 -41 -24
-42 -25 -2 -1 20 -44 47 -96 32 -61 54 -94 64 -93 40 4 175 94 246 164 88 88
132 169 160 297 16 73 19 135 20 466 0 210 3 383 6 386 3 3 26 5 52 6 l47 0 0
100 0 100 -243 3 c-133 1 -242 1 -243 0z"/>
<path d="M1220 1724 l0 -106 33 4 c17 2 46 2 62 -2 l30 -5 0 -387 c0 -250 -4
-389 -10 -392 -5 -2 -29 -2 -52 -1 l-43 2 0 -104 0 -103 436 2 436 3 4 110 c3
61 6 149 8 198 l3 87 -118 0 c-117 0 -119 0 -120 -22 -2 -82 -12 -164 -19
-168 -5 -3 -62 -5 -127 -5 l-118 0 0 150 0 150 146 0 146 0 -1 110 -1 109
-145 1 -144 0 -1 128 c-1 71 3 131 8 134 13 8 226 8 234 0 6 -7 10 -44 12
-119 l1 -48 119 0 119 0 -3 108 c-2 59 -4 144 -4 190 l-1 82 -445 0 -445 0 0
-106z"/>
</g>
</svg>
