<svg xmlns="http://www.w3.org/2000/svg" viewBox="0 0 99.46 97.98"><defs><style>.cls-1,.cls-2{fill:#fff;}.cls-2{stroke:#fff;stroke-linecap:round;stroke-linejoin:round;stroke-width:2.96px;}</style></defs><title>data</title><g id="Layer_2" data-name="Layer 2"><g id="Layer_2-2" data-name="Layer 2"><path class="cls-1" d="M29.38,96.49V54a1.11,1.11,0,0,0-1.11-1.11H7.59A1.11,1.11,0,0,0,6.48,54V96.49"/><path class="cls-1" d="M61.18,96.49V1.11A1.11,1.11,0,0,0,60.07,0H39.39a1.11,1.11,0,0,0-1.11,1.11V96.49"/><path class="cls-1" d="M93,96.49V33.21a1.11,1.11,0,0,0-1.11-1.11H71.19a1.11,1.11,0,0,0-1.11,1.11V96.49"/><line class="cls-2" x1="1.48" y1="96.49" x2="97.98" y2="96.49"/></g></g></svg>