<svg xmlns="http://www.w3.org/2000/svg" xmlns:xlink="http://www.w3.org/1999/xlink" viewBox="0 0 99.49 97.79"><defs><style>.cls-1{fill:none;stroke-linecap:round;stroke-linejoin:round;stroke-width:3px;stroke:url(#linear-gradient);}</style><linearGradient id="linear-gradient" y1="48.89" x2="99.49" y2="48.89" gradientUnits="userSpaceOnUse"><stop offset="0" stop-color="#006f3b"/><stop offset="0.01" stop-color="#00713e"/><stop offset="0.16" stop-color="#008059"/><stop offset="0.31" stop-color="#008c6e"/><stop offset="0.48" stop-color="#00957d"/><stop offset="0.69" stop-color="#009986"/><stop offset="0.99" stop-color="#009b89"/></linearGradient></defs><title>home</title><g id="Layer_2" data-name="Layer 2"><g id="Layer_3" data-name="Layer 3"><path class="cls-1" d="M46.54,2.75,3,42.89A4.74,4.74,0,0,0,1.5,46.37V91.55a4.74,4.74,0,0,0,4.74,4.74H33.09a4.74,4.74,0,0,0,4.74-4.74V66.25a4.74,4.74,0,0,1,4.74-4.74H56.93a4.74,4.74,0,0,1,4.74,4.74v25.3a4.74,4.74,0,0,0,4.74,4.74H93.26A4.74,4.74,0,0,0,98,91.55V46.37a4.74,4.74,0,0,0-1.52-3.48L53,2.75A4.74,4.74,0,0,0,46.54,2.75Z"/></g></g></svg>