<svg xmlns="http://www.w3.org/2000/svg" viewBox="0 0 95.84 95.84"><defs><style>.cls-1{fill:none;stroke:#000;stroke-linecap:round;stroke-linejoin:round;stroke-width:3px;}</style></defs><title>material-line</title><g id="Layer_2" data-name="Layer 2"><g id="Layer_2-2" data-name="Layer 2"><circle class="cls-1" cx="47.92" cy="47.92" r="46.42"/><path d="M74.15,25.78,66,21.63h0a2.42,2.42,0,0,0-2.92.57l-4.49-2.28a2.42,2.42,0,0,0-1.26-2.7l-8.17-4.15a2.42,2.42,0,0,0-3.31,3.11L51,28.3l-1.69,3.34A1.5,1.5,0,0,0,47.49,34l.46.39L47.1,36a1.5,1.5,0,0,0-1.85,2.35l.46.39-.87,1.72A1.5,1.5,0,0,0,43,42.86l.46.39L42.57,45a1.5,1.5,0,0,0-1.85,2.35l.46.39-.87,1.72a1.5,1.5,0,0,0-1.85,2.35l.46.39L38,53.9a1.5,1.5,0,0,0-1.85,2.35l.46.39-.87,1.72a1.5,1.5,0,0,0-1.85,2.35l.46.39-.9,1.78a1.5,1.5,0,0,0-1.85,2.35l.46.39-2,3.87a2.5,2.5,0,0,0-.22.65L28.23,80.1a2.39,2.39,0,0,0,1.27,2.66,2.47,2.47,0,0,0,1.12.27,2.31,2.31,0,0,0,1.73-.77l7.14-7.32a2.45,2.45,0,0,0,.35-.51l3.07-6A1.49,1.49,0,0,0,44.75,66l-.46-.39.88-1.73A1.49,1.49,0,0,0,47,61.58l-.46-.39.88-1.73a1.49,1.49,0,0,0,1.85-2.34l-.46-.39L49.7,55a1.49,1.49,0,0,0,1.84-2.34l-.46-.39L52,50.52a1.49,1.49,0,0,0,1.85-2.34l-.46-.39.88-1.73a1.49,1.49,0,0,0,1.85-2.34l-.46-.39,5.12-10.1L73.6,30.29a2.42,2.42,0,0,0,.55-4.51ZM37.2,73l-5.72,5.87,1.36-8.08,1.59-3.14,1.45,1.24a1.5,1.5,0,1,0,2-2.28l-2-1.72.9-1.77,3.82,3.28Zm.92-12.63L39,58.65l3.82,3.28-.87,1.71Zm2.27-4.46.87-1.71,3.82,3.28-.87,1.71Zm2.27-4.46.87-1.71L47.35,53l-.87,1.71ZM44.92,47l.87-1.71,3.82,3.28-.87,1.71Zm2.27-4.46.87-1.71,3.82,3.28L51,45.78ZM59.8,30.37a2.41,2.41,0,0,0-1.61,1.26l-4.92,9.69L49.46,38l.84-1.65,1.45,1.24a1.5,1.5,0,1,0,2-2.28l-2-1.72,2.14-4.22a2.41,2.41,0,0,0,.06-2L49.21,16.48l6.28,3.19a2.42,2.42,0,0,0,1.26,2.7l5.4,2.74a2.42,2.42,0,0,0,2.92-.57l6.28,3.19Z"/></g></g></svg>