<svg xmlns="http://www.w3.org/2000/svg" viewBox="0 0 88.82 88.37"><defs><style>.cls-1{fill:#fff;}</style></defs><title>tooling</title><g id="Layer_2" data-name="Layer 2"><g id="Layer_2-2" data-name="Layer 2"><path class="cls-1" d="M24.5,33.61c7.6-2.71,13.09-9.53,13-17.95A18.06,18.06,0,0,0,28.28,0H24.81L25,15.28l-6.36,6.16L13.18,15.8,13,0H9.62C4.24,3.53-.08,10.48,0,17.29.1,25.71,5.73,32,13.39,34.09L10.55,82.83a5.77,5.77,0,0,0,6,5.54h5.74a6.47,6.47,0,0,0,5.92-6.31Z"/><path class="cls-1" d="M56.09,82.57a6.07,6.07,0,0,0,6,5.8h5.6c3.31,0,6.19-2.52,6.14-5.55L68.61,22s-.67-8.59,5.51-8.56h.15a5.72,5.72,0,0,1,4.41,2.67,1.89,1.89,0,0,0,1.58.89l6.74.09a1.78,1.78,0,0,0,1.82-1.82l-.24-13A1.92,1.92,0,0,0,86.69.37L79.8.28A1.77,1.77,0,0,0,78.34,1C77.13,2.63,73.6,6.08,68.22.65A1.89,1.89,0,0,0,66.9.1L60,0a1.8,1.8,0,0,0-1.15.39l-2.45,2a1.78,1.78,0,0,1-1,.39c-2.49.1-12.34,1-15.18,9a1.91,1.91,0,0,0,2.22,2.47c5.6-1.28,17.23-2.73,16.49,7.61Z"/></g></g></svg>